<mxfile host="app.diagrams.net" modified="2024-04-04T18:02:45.243Z" agent="Mozilla/5.0 (Windows NT 10.0; Win64; x64) AppleWebKit/537.36 (KHTML, like Gecko) Chrome/121.0.0.0 Safari/537.36 OPR/107.0.0.0" etag="T9QEoOXYnBTlNGwZTyan" version="24.0.7" type="github">
  <diagram name="PÃ¡gina-1" id="fMd19Do2FWx-BMi6_N6Y">
    <mxGraphModel dx="2007" dy="745" grid="1" gridSize="10" guides="1" tooltips="1" connect="1" arrows="1" fold="1" page="1" pageScale="1" pageWidth="827" pageHeight="1169" math="0" shadow="0">
      <root>
        <mxCell id="0" />
        <mxCell id="1" parent="0" />
        <mxCell id="sIWbyuyJRMNvYDNGpS1E-1" value="Entity" style="rounded=1;arcSize=10;whiteSpace=wrap;html=1;align=center;" vertex="1" parent="1">
          <mxGeometry x="120" y="160" width="100" height="40" as="geometry" />
        </mxCell>
        <mxCell id="sIWbyuyJRMNvYDNGpS1E-2" value="Entity" style="rounded=1;arcSize=10;whiteSpace=wrap;html=1;align=center;" vertex="1" parent="1">
          <mxGeometry x="580" y="160" width="100" height="40" as="geometry" />
        </mxCell>
        <mxCell id="sIWbyuyJRMNvYDNGpS1E-3" value="Entity" style="rounded=1;arcSize=10;whiteSpace=wrap;html=1;align=center;" vertex="1" parent="1">
          <mxGeometry x="120" y="440" width="100" height="40" as="geometry" />
        </mxCell>
        <mxCell id="sIWbyuyJRMNvYDNGpS1E-4" value="Entity" style="rounded=1;arcSize=10;whiteSpace=wrap;html=1;align=center;" vertex="1" parent="1">
          <mxGeometry x="580" y="440" width="100" height="40" as="geometry" />
        </mxCell>
        <mxCell id="sIWbyuyJRMNvYDNGpS1E-5" value="Relationship" style="shape=rhombus;perimeter=rhombusPerimeter;whiteSpace=wrap;html=1;align=center;" vertex="1" parent="1">
          <mxGeometry x="340" y="300" width="120" height="60" as="geometry" />
        </mxCell>
        <mxCell id="sIWbyuyJRMNvYDNGpS1E-6" value="Attribute" style="ellipse;whiteSpace=wrap;html=1;align=center;fontStyle=4;" vertex="1" parent="1">
          <mxGeometry x="350" y="30" width="100" height="40" as="geometry" />
        </mxCell>
        <mxCell id="sIWbyuyJRMNvYDNGpS1E-7" value="Attribute" style="ellipse;whiteSpace=wrap;html=1;align=center;" vertex="1" parent="1">
          <mxGeometry x="-40" y="40" width="100" height="40" as="geometry" />
        </mxCell>
      </root>
    </mxGraphModel>
  </diagram>
</mxfile>
